<svg width="21" height="20" viewBox="0 0 21 20" fill="none" xmlns="http://www.w3.org/2000/svg">
<path d="M5.5 1.66669L3 5.00002V16.6667C3 17.1087 3.17559 17.5326 3.48816 17.8452C3.80072 18.1578 4.22464 18.3334 4.66667 18.3334H16.3333C16.7754 18.3334 17.1993 18.1578 17.5118 17.8452C17.8244 17.5326 18 17.1087 18 16.6667V5.00002L15.5 1.66669H5.5Z" stroke="#212121" stroke-width="2" stroke-linecap="round" stroke-linejoin="round"/>
<path d="M13.8332 8.33331C13.8332 9.21737 13.482 10.0652 12.8569 10.6903C12.2317 11.3155 11.3839 11.6666 10.4998 11.6666C9.61578 11.6666 8.76794 11.3155 8.14281 10.6903C7.51769 10.0652 7.1665 9.21737 7.1665 8.33331" stroke="#212121" stroke-width="2" stroke-linecap="round" stroke-linejoin="round"/>
<path d="M3 5H18" stroke="#212121" stroke-width="2" stroke-linecap="round" stroke-linejoin="round"/>
</svg>
