<svg width="21" height="20" viewBox="0 0 21 20" fill="none" xmlns="http://www.w3.org/2000/svg">
<path d="M17 8.33331C17 10.848 15.3593 13.3126 13.524 15.2497C12.6269 16.1967 11.7263 16.9726 11.0489 17.512C10.8422 17.6766 10.657 17.8186 10.5 17.9361C10.343 17.8186 10.1578 17.6766 9.95105 17.512C9.27367 16.9726 8.37311 16.1967 7.47595 15.2497C5.64074 13.3126 4 10.848 4 8.33331C4 6.60941 4.68482 4.9561 5.90381 3.73712C7.12279 2.51813 8.77609 1.83331 10.5 1.83331C12.2239 1.83331 13.8772 2.51813 15.0962 3.73712C16.3152 4.95611 17 6.60941 17 8.33331Z" stroke="#212121" stroke-width="2" stroke-linecap="round" stroke-linejoin="round"/>
<path d="M10.5 10.8333C11.8807 10.8333 13 9.71403 13 8.33331C13 6.9526 11.8807 5.83331 10.5 5.83331C9.11929 5.83331 8 6.9526 8 8.33331C8 9.71403 9.11929 10.8333 10.5 10.8333Z" stroke="#212121" stroke-width="2" stroke-linecap="round" stroke-linejoin="round"/>
</svg>
