<svg width="170" height="34" viewBox="0 0 170 34" fill="none" xmlns="http://www.w3.org/2000/svg">
<path d="M8.30378 0.934448C10.9141 0.934448 12.2193 2.4199 12.2193 5.36684V18.2088C12.2193 21.1557 10.9141 22.6412 8.30378 22.6412H0.202637V0.934448H8.30378ZM7.80871 18.7598V4.79182C7.80648 4.61388 7.74234 4.44314 7.62868 4.31265C7.51517 4.19172 7.36169 4.12292 7.20112 4.12098H4.61326V19.4067H7.20112C7.36172 19.4049 7.51524 19.3361 7.62881 19.2152C7.74237 19.0943 7.80695 18.9308 7.80871 18.7598Z" fill="#212121"/>
<path d="M22.7958 5.94147C25.4061 5.94147 26.7113 7.42692 26.7113 10.3739V15.6688H19.5553V19.0949C19.5575 19.2728 19.6217 19.4436 19.7353 19.574C19.7883 19.6384 19.8544 19.689 19.9284 19.7222C20.0025 19.7554 20.0826 19.7703 20.1629 19.7657H21.8956C22.0562 19.7638 22.2097 19.695 22.3232 19.574C22.4369 19.4436 22.501 19.2728 22.5032 19.0949V17.274H26.7338V18.5438C26.7338 21.4908 25.4286 22.9762 22.8183 22.9762H19.2403C16.6299 22.9762 15.3247 21.4908 15.3247 18.5438V10.3739C15.3247 7.42692 16.6299 5.94147 19.2403 5.94147H22.7958ZM19.5553 12.7218H22.4807V9.70301C22.4785 9.52506 22.4143 9.35432 22.3007 9.22383C22.1872 9.1029 22.0337 9.0341 21.8731 9.03216H20.1404C19.9798 9.0341 19.8263 9.1029 19.7128 9.22383C19.5992 9.35432 19.535 9.52506 19.5328 9.70301L19.5553 12.7218Z" fill="#212121"/>
<path d="M33.2594 22.6412H29.0288V0.934448H33.2594V22.6412Z" fill="#212121"/>
<path d="M40.3928 4.2168C39.9544 4.66869 39.3669 4.91935 38.7567 4.91487C38.1466 4.91039 37.5624 4.65113 37.1299 4.19284C36.9155 3.97107 36.7444 3.70651 36.6261 3.41428C36.5079 3.12205 36.4448 2.80788 36.4407 2.48971C36.4365 2.17154 36.4912 1.85562 36.6017 1.55998C36.7123 1.26434 36.8764 0.994792 37.0849 0.766724L37.1299 0.718807C37.5628 0.258529 38.1495 0 38.7613 0C39.3731 0 39.9599 0.258529 40.3928 0.718807C40.6147 0.943309 40.7895 1.21515 40.9058 1.51655C41.0221 1.81795 41.0774 2.1421 41.0679 2.4678C41.0743 2.79308 41.0177 3.11626 40.9015 3.41719C40.7854 3.71811 40.6122 3.99031 40.3928 4.2168ZM36.6573 22.6412V6.27726H40.8879V22.6412H36.6573Z" fill="#212121"/>
<path d="M50.9246 6.27728H55.0202L51.6447 22.6412H46.064L42.6885 6.27728H46.8066L48.8769 18.9755L50.9246 6.27728Z" fill="#212121"/>
<path d="M64.3138 5.94147C66.9242 5.94147 68.2294 7.42692 68.2294 10.3739V15.6688H61.0734V19.0949C61.0756 19.2728 61.1397 19.4436 61.2534 19.574C61.3669 19.695 61.5204 19.7638 61.681 19.7657H63.4137C63.5743 19.7638 63.7278 19.695 63.8413 19.574C63.9549 19.4436 64.0191 19.2728 64.0213 19.0949V17.274H68.2519V18.5438C68.2519 21.4908 66.9467 22.9762 64.3363 22.9762H60.7583C58.148 22.9762 56.8428 21.4908 56.8428 18.5438V10.3739C56.8428 7.42692 58.148 5.94147 60.7583 5.94147H64.3138ZM61.0734 12.7218H63.9988V9.70301C63.9966 9.52506 63.9324 9.35432 63.8188 9.22383C63.7658 9.15952 63.6997 9.10886 63.6257 9.07566C63.5516 9.04246 63.4714 9.02758 63.3912 9.03216H61.6585C61.4979 9.0341 61.3444 9.1029 61.2309 9.22383C61.1172 9.35432 61.0531 9.52506 61.0509 9.70301L61.0734 12.7218Z" fill="#212121"/>
<path d="M77.0954 5.94147H77.9055V10.302H75.8352C75.1151 10.302 74.755 10.6853 74.755 11.476V22.6408H70.5244V6.27689H74.3725V7.85818C75.0026 6.5644 75.9027 5.94147 77.0954 5.94147Z" fill="#212121"/>
<path d="M86.9748 5.94147H91.2054V19.4063C91.2054 21.6585 89.9002 22.8085 87.3124 22.8085H84.1619C81.5515 22.8085 80.2464 21.6824 80.2464 19.4303V19.023H84.3419V19.8376C84.3437 19.9083 84.3608 19.9775 84.3921 20.0399C84.4233 20.1023 84.4678 20.1561 84.522 20.197C84.6456 20.294 84.796 20.3446 84.9495 20.3407H86.3897C86.5433 20.3446 86.6937 20.294 86.8173 20.197C86.8696 20.1542 86.9127 20.1 86.9437 20.038C86.9748 19.976 86.993 19.9077 86.9973 19.8376V17.274C86.3672 17.6813 85.5121 17.8969 84.4094 17.8969H83.7569C81.1465 17.8969 79.8413 16.7709 79.8413 14.5187V5.94147H84.0719V14.926C84.0736 14.9967 84.0908 15.066 84.1221 15.1284C84.1533 15.1907 84.1978 15.2445 84.2519 15.2854C84.3105 15.3386 84.3786 15.3787 84.452 15.4034C84.5255 15.4281 84.6028 15.4369 84.6795 15.4292H86.4122C86.5658 15.433 86.7162 15.3825 86.8398 15.2854C86.8921 15.2426 86.9352 15.1884 86.9662 15.1264C86.9973 15.0644 87.0156 14.9961 87.0198 14.926L86.9748 5.94147Z" fill="#212121"/>
<path d="M100.162 14.0156V10.5655H105.99V18.5438C105.99 21.4907 104.685 22.9762 102.074 22.9762H98.1138C95.5034 22.9762 94.1982 21.4907 94.1982 18.5438V5.03102C94.1982 2.08408 95.5034 0.598633 98.1138 0.598633H102.074C104.685 0.598633 105.99 2.08408 105.99 5.03102V7.06752H101.804V4.45601C101.802 4.27806 101.738 4.10732 101.624 3.97683C101.571 3.91252 101.505 3.86186 101.431 3.82866C101.357 3.79546 101.277 3.78059 101.197 3.78516H99.2164C99.0559 3.7871 98.9024 3.8559 98.7889 3.97683C98.6752 4.10732 98.6111 4.27806 98.6088 4.45601V19.0709C98.6111 19.2488 98.6752 19.4196 98.7889 19.5501C98.8419 19.6144 98.9079 19.665 98.982 19.6982C99.056 19.7314 99.1362 19.7463 99.2164 19.7417H101.197C101.357 19.7398 101.511 19.671 101.624 19.5501C101.738 19.4196 101.802 19.2488 101.804 19.0709V14.0156H100.162Z" fill="#212121"/>
<path d="M114.811 5.94147H115.644V10.302H113.573C112.853 10.302 112.493 10.6853 112.493 11.476V22.6408H108.263V6.27689H112.111V7.85818C112.718 6.5644 113.618 5.94147 114.811 5.94147Z" fill="#212121"/>
<path d="M128.898 10.3739V18.5678C128.898 21.5147 127.593 23.0002 124.982 23.0002H121.427C118.816 23.0002 117.511 21.5147 117.511 18.5678V10.3739C117.511 7.42692 118.816 5.94147 121.427 5.94147H124.982C127.593 5.94147 128.898 7.40296 128.898 10.3739ZM124.667 19.4782V9.39154C124.665 9.2136 124.601 9.04285 124.487 8.91236C124.434 8.84806 124.368 8.7974 124.294 8.76419C124.22 8.73099 124.14 8.71612 124.06 8.72069H122.327C122.166 8.72263 122.013 8.79144 121.899 8.91236C121.786 9.04285 121.722 9.2136 121.719 9.39154V19.4782C121.722 19.6562 121.786 19.8269 121.899 19.9574C121.952 20.0217 122.018 20.0724 122.092 20.1056C122.166 20.1388 122.247 20.1536 122.327 20.1491H124.06C124.22 20.1471 124.374 20.0783 124.487 19.9574C124.554 19.9011 124.605 19.8273 124.637 19.7433C124.669 19.6592 124.679 19.5679 124.667 19.4782Z" fill="#212121"/>
<path d="M135.671 19.3109H141.725V22.6412H131.328V19.4786L137.269 9.55964H131.306V6.27728H141.702V9.24818L135.671 19.3109Z" fill="#212121"/>
<path d="M148.138 22.6408H143.908V6.27689H147.756V7.11545C148.408 6.32481 149.398 5.94147 150.726 5.94147H151.379C153.989 5.94147 155.294 7.42692 155.294 10.3739V22.6408H151.064V9.8228C151.061 9.64485 150.997 9.47411 150.884 9.34362C150.77 9.22269 150.617 9.15389 150.456 9.15195H148.746C148.585 9.15389 148.432 9.22269 148.318 9.34362C148.205 9.47411 148.141 9.64485 148.138 9.8228V22.6408Z" fill="#212121"/>
<path d="M165.308 6.27728H169.539V19.4786C169.539 21.6828 168.234 22.8089 165.623 22.8089H162.473C159.863 22.8089 158.557 21.7068 158.557 19.4786V19.0713H162.653V19.8859C162.655 19.9566 162.672 20.0259 162.703 20.0882C162.734 20.1506 162.779 20.2044 162.833 20.2453C162.957 20.3423 163.107 20.3929 163.261 20.389H164.701C164.854 20.3929 165.005 20.3423 165.128 20.2453C165.182 20.2044 165.227 20.1506 165.258 20.0882C165.289 20.0259 165.307 19.9566 165.308 19.8859V17.3942C164.678 17.8015 163.823 17.9932 162.72 17.9932H162.068C159.458 17.9932 158.152 16.8911 158.152 14.6629V6.27728H162.383V15.0941C162.385 15.1648 162.402 15.2341 162.433 15.2965C162.464 15.3588 162.509 15.4126 162.563 15.4535C162.687 15.5506 162.837 15.6011 162.991 15.5973H164.723C164.877 15.6011 165.027 15.5506 165.151 15.4535C165.205 15.4126 165.249 15.3588 165.281 15.2965C165.312 15.2341 165.329 15.1648 165.331 15.0941L165.308 6.27728Z" fill="#212121"/>
<path d="M4.47813 28.1277L2.52035 30.9549L4.65816 33.8299V33.9018H2.99292L1.35019 31.6497V33.9258H0V28.0558H1.35019V30.3319L2.88041 28.0558H4.47813V28.1277Z" fill="#212121"/>
<path d="M11.0492 33.9256L11.8593 31.937L10.0815 28.0557H11.5893L12.1518 29.2776L12.6019 30.4276L12.9845 29.3015L13.4795 28.0557H14.9647L12.4894 33.9256H11.0492Z" fill="#212121"/>
<path d="M22.6607 28.0557C25.2486 28.0557 25.2261 32.1766 22.6607 32.1766H21.8956V33.9256H20.5454V28.0557H22.6607ZM22.6607 30.8349C23.4933 30.8349 23.4933 29.4453 22.6607 29.4453H21.8956V30.8349H22.6607Z" fill="#212121"/>
<path d="M30.2666 33.9256V28.0557H31.6168V29.8047H32.3819C33.6421 29.8047 34.2947 30.8349 34.2947 31.8651C34.2947 32.8954 33.6421 33.9256 32.3819 33.9256H30.2666ZM31.6168 31.1703V32.536H32.3819C32.5397 32.5316 32.6895 32.4613 32.799 32.3402C32.9085 32.2192 32.9688 32.0571 32.967 31.8891V31.8412C32.9734 31.7592 32.9645 31.6768 32.9408 31.5986C32.9171 31.5203 32.879 31.4479 32.8287 31.3855C32.7785 31.3231 32.7171 31.2719 32.6481 31.235C32.5791 31.198 32.5039 31.1761 32.4269 31.1703H31.6168Z" fill="#212121"/>
<path d="M41.2706 32.536H43.5435V33.9256H39.8979V28.0557H43.521V29.4453H41.2481V30.3078H43.476V31.6974H41.2481V32.536H41.2706Z" fill="#212121"/>
<path d="M51.3296 28.0557C53.9175 28.0557 53.895 32.1766 51.3296 32.1766H50.5645V33.9256H49.2144V28.0557H51.3296ZM51.3296 30.8349C52.1622 30.8349 52.1622 29.4453 51.3296 29.4453H50.5645V30.8349H51.3296Z" fill="#212121"/>
<path d="M63.1662 31.458H64.5389C64.4504 32.1778 64.1132 32.8367 63.5932 33.3063C63.0731 33.7758 62.4075 34.0223 61.726 33.9977C60.974 33.9977 60.2528 33.6796 59.7211 33.1135C59.1893 32.5473 58.8906 31.7795 58.8906 30.9788C58.8906 30.1782 59.1893 29.4103 59.7211 28.8442C60.2528 28.2781 60.974 27.96 61.726 27.96C62.4063 27.9403 63.0696 28.1885 63.5886 28.6571C64.1077 29.1258 64.4461 29.7818 64.5389 30.4997H63.1887C62.7837 28.7986 60.2183 28.9663 60.2183 31.0028C60.2183 33.0393 62.7837 33.1831 63.1662 31.458Z" fill="#212121"/>
<path d="M74.8004 28.1278L72.8426 30.955L74.9804 33.83V33.9019H73.3152L71.6725 31.6258V33.9019H70.3223V28.032H71.6725V30.3081L73.2027 28.032H74.8004V28.1278Z" fill="#212121"/>
<path d="M84.0489 33.0629H82.1586L81.8435 33.9254H80.4033L82.6086 27.9836H83.5763L85.8716 33.9254H84.3414L84.0489 33.0629ZM82.6987 31.6014L82.6536 31.7451H83.5763L83.5538 31.6493L83.1262 30.3795L82.6987 31.6014Z" fill="#212121"/>
<path d="M93.9956 31.937L92.8479 33.9256H91.4077V33.662L92.6004 31.7932C90.9126 30.9307 91.2277 28.0557 93.4105 28.0557H95.5483V33.9256H94.1981V31.937H93.9956ZM94.2206 29.4213H93.4555C93.3033 29.4118 93.1538 29.467 93.0398 29.5749C92.9259 29.6827 92.8569 29.8343 92.8479 29.9963C92.839 30.1584 92.8908 30.3176 92.9921 30.4389C93.0934 30.5602 93.2358 30.6337 93.388 30.6432H94.2206V29.4213Z" fill="#212121"/>
<path d="M112.561 31.458H113.933C113.842 32.1763 113.503 32.833 112.984 33.3018C112.465 33.7706 111.801 34.0185 111.121 33.9977C110.369 33.9977 109.647 33.6796 109.116 33.1135C108.584 32.5473 108.285 31.7795 108.285 30.9788C108.285 30.1782 108.584 29.4104 109.116 28.8442C109.647 28.2781 110.369 27.96 111.121 27.96C111.801 27.9403 112.464 28.1885 112.983 28.6571C113.502 29.1258 113.841 29.7818 113.933 30.4997H112.561C112.156 28.7986 109.59 28.9663 109.59 31.0028C109.59 33.0393 112.178 33.1831 112.561 31.458Z" fill="#212121"/>
<path d="M122.575 31.6253L122.147 30.3555L121.742 31.6014L120.887 33.9254H119.447L121.652 27.9836H122.62L124.915 33.9254H123.385L122.575 31.6253Z" fill="#212121"/>
<path d="M131.261 33.9259L132.071 31.9373L130.293 28.0559H131.801L132.364 29.2778L132.814 30.4279L133.196 29.2778L133.691 28.032H135.199L132.724 33.9019L131.261 33.9259Z" fill="#212121"/>
<path d="M140.825 28.0557H142.4L143.66 30.3318V28.0557H145.01V30.3318L146.27 28.0557H147.845V28.1515L146.135 30.9786L148.003 33.8537V33.9256H146.383L145.01 31.6495V33.9256H143.66V31.6495L142.287 33.9256H140.667V33.8537L142.535 30.9786L140.825 28.1515V28.0557Z" fill="#212121"/>
<path d="M157.567 29.4211H155.002V30.1638H156.194C156.418 30.1578 156.64 30.199 156.848 30.285C157.057 30.3711 157.247 30.5003 157.408 30.6652C157.569 30.8301 157.698 31.0274 157.787 31.2457C157.876 31.4639 157.924 31.6988 157.927 31.9368V32.0566C157.927 32.991 157.342 33.9493 156.194 33.9493H153.674V28.0794H157.567V29.4211ZM155.002 32.5597H156.194C156.802 32.5597 156.779 31.4816 156.194 31.4816H155.002V32.5597Z" fill="#212121"/>
<path d="M167.086 33.0629H165.196L164.881 33.9254H163.44L165.646 27.9836H166.613L168.909 33.9254H167.378L167.086 33.0629ZM165.736 31.6014L165.691 31.7451H166.613L166.591 31.6493L166.163 30.3795L165.736 31.6014Z" fill="#212121"/>
</svg>
