<svg width="143" height="42" fill="none" xmlns="http://www.w3.org/2000/svg"><path d="M141.229 36.296c0 2.187-1.808 3.958-4.044 3.958H4.839c-2.236 0-4.05-1.771-4.05-3.958V4.736C.79 2.552 2.603.775 4.84.775h132.345c2.237 0 4.044 1.777 4.044 3.963l.001 31.559Z" fill="#443E3E"/><path d="M136.758.822c2.436 0 4.417 1.932 4.417 4.307v30.77c0 2.375-1.981 4.307-4.417 4.307H5.26c-2.435 0-4.417-1.932-4.417-4.307V5.13C.843 2.754 2.825.822 5.26.822h131.498Zm0-.822H5.26C2.368 0 0 2.31 0 5.13v30.77c0 2.82 2.368 5.129 5.26 5.129h131.498c2.892 0 5.26-2.31 5.26-5.129V5.13c0-2.82-2.368-5.129-5.26-5.129Z" fill="#A6A6A6"/><path d="M31.694 20.292c-.03-3.306 2.776-4.914 2.904-4.989-1.59-2.26-4.053-2.568-4.919-2.593-2.069-.212-4.076 1.208-5.13 1.208-1.075 0-2.698-1.187-4.448-1.152-2.251.034-4.357 1.304-5.512 3.278-2.384 4.024-.606 9.937 1.678 13.19 1.142 1.592 2.477 3.37 4.224 3.308 1.71-.069 2.348-1.063 4.411-1.063 2.044 0 2.644 1.063 4.426 1.023 1.835-.029 2.99-1.6 4.092-3.207 1.32-1.826 1.85-3.624 1.872-3.716-.043-.015-3.563-1.325-3.598-5.287ZM28.328 10.57c.919-1.12 1.548-2.646 1.373-4.193-1.33.057-2.995.897-3.953 1.994-.848.966-1.605 2.55-1.41 4.039 1.495.108 3.03-.736 3.99-1.84ZM56.434 32.313h-2.389l-1.308-4.01h-4.55l-1.246 4.01h-2.326l4.507-13.65h2.784l4.528 13.65Zm-4.092-5.691-1.183-3.565c-.126-.364-.36-1.221-.706-2.571h-.042c-.138.58-.36 1.438-.665 2.571l-1.163 3.565h3.76ZM68.024 27.271c0 1.674-.464 2.997-1.392 3.968-.83.865-1.863 1.297-3.095 1.297-1.33 0-2.285-.466-2.866-1.397h-.042v5.185h-2.243V25.71c0-1.052-.029-2.132-.083-3.24h1.972l.125 1.56h.043c.747-1.175 1.883-1.762 3.406-1.762 1.19 0 2.185.458 2.98 1.376.797.92 1.195 2.128 1.195 3.626Zm-2.285.08c0-.958-.22-1.748-.665-2.37-.485-.648-1.136-.972-1.952-.972-.553 0-1.056.18-1.505.537a2.48 2.48 0 0 0-.883 1.408c-.07.27-.104.492-.104.667v1.64c0 .717.225 1.321.675 1.814.45.494 1.035.74 1.755.74.845 0 1.502-.318 1.972-.952.472-.635.707-1.472.707-2.512ZM79.635 27.271c0 1.674-.464 2.997-1.393 3.968-.83.865-1.862 1.297-3.094 1.297-1.33 0-2.285-.466-2.865-1.397h-.043v5.185h-2.242V25.71c0-1.052-.029-2.132-.083-3.24h1.972l.125 1.56h.042c.747-1.175 1.882-1.762 3.407-1.762 1.19 0 2.184.458 2.981 1.376.794.92 1.193 2.128 1.193 3.626Zm-2.285.08c0-.958-.222-1.748-.666-2.37-.485-.648-1.134-.972-1.951-.972-.555 0-1.056.18-1.507.537-.45.359-.743.828-.881 1.408-.069.27-.105.492-.105.667v1.64c0 .717.226 1.321.674 1.814.45.493 1.035.74 1.757.74.844 0 1.502-.318 1.972-.952.471-.635.707-1.472.707-2.512ZM92.616 28.485c0 1.162-.413 2.106-1.243 2.835-.912.797-2.182 1.195-3.814 1.195-1.506 0-2.714-.283-3.628-.85l.52-1.823c.985.58 2.065.872 3.242.872.845 0 1.502-.186 1.975-.558.47-.371.704-.87.704-1.491 0-.554-.193-1.02-.581-1.4-.386-.378-1.031-.73-1.932-1.055-2.45-.89-3.675-2.197-3.675-3.914 0-1.122.429-2.042 1.288-2.758.857-.717 2-1.075 3.428-1.075 1.274 0 2.332.217 3.177.649l-.561 1.782c-.789-.418-1.681-.627-2.68-.627-.788 0-1.405.19-1.847.567-.373.337-.56.748-.56 1.236 0 .54.213.985.642 1.336.374.324 1.052.675 2.037 1.054 1.204.472 2.09 1.025 2.658 1.66.567.63.85 1.422.85 2.365ZM100.032 24.112h-2.473v4.779c0 1.215.436 1.822 1.31 1.822.4 0 .732-.034.995-.101l.062 1.66c-.441.161-1.023.242-1.744.242-.886 0-1.578-.263-2.078-.79-.497-.527-.747-1.41-.747-2.653V24.11h-1.473v-1.641h1.473v-1.803l2.202-.648v2.45h2.473v1.644ZM111.186 27.311c0 1.513-.444 2.755-1.33 3.726-.929 1-2.162 1.499-3.699 1.499-1.481 0-2.66-.48-3.539-1.437-.88-.958-1.32-2.167-1.32-3.625 0-1.525.453-2.774 1.361-3.746.905-.972 2.128-1.458 3.665-1.458 1.481 0 2.673.479 3.572 1.438.861.93 1.29 2.131 1.29 3.603Zm-2.327.07c0-.907-.199-1.685-.602-2.335-.47-.785-1.142-1.177-2.013-1.177-.902 0-1.587.393-2.057 1.177-.403.65-.602 1.441-.602 2.377 0 .908.199 1.686.602 2.334.485.786 1.163 1.178 2.037 1.178.856 0 1.528-.4 2.013-1.198.414-.662.622-1.448.622-2.355ZM118.477 24.394a3.995 3.995 0 0 0-.707-.06c-.789 0-1.399.29-1.829.871-.373.513-.56 1.161-.56 1.944v5.164h-2.242l.021-6.743c0-1.134-.029-2.167-.084-3.098h1.953l.082 1.883h.062c.237-.647.611-1.168 1.122-1.559a2.756 2.756 0 0 1 1.621-.527c.207 0 .394.014.561.04v2.085ZM128.507 26.926c0 .392-.026.722-.082.992h-6.729c.027.973.352 1.716.977 2.229.567.459 1.3.688 2.2.688.997 0 1.906-.155 2.723-.465l.351 1.518c-.955.406-2.083.608-3.384.608-1.565 0-2.794-.45-3.688-1.347-.892-.897-1.339-2.102-1.339-3.614 0-1.485.415-2.72 1.247-3.706.871-1.053 2.049-1.579 3.53-1.579 1.455 0 2.556.526 3.304 1.579.592.836.89 1.87.89 3.097Zm-2.139-.567c.015-.648-.131-1.208-.435-1.681-.388-.608-.985-.912-1.788-.912-.733 0-1.329.297-1.785.892-.373.472-.595 1.04-.664 1.7h4.672v.001ZM51.6 10.266c0 1.207-.371 2.116-1.113 2.726-.687.563-1.663.845-2.928.845-.627 0-1.163-.026-1.612-.08V7.161c.586-.092 1.217-.14 1.899-.14 1.204 0 2.112.256 2.724.767.686.577 1.03 1.403 1.03 2.478Zm-1.162.03c0-.783-.213-1.383-.638-1.801-.425-.418-1.045-.627-1.863-.627-.347 0-.643.022-.888.07v5.014c.136.02.384.03.745.03.844 0 1.495-.229 1.954-.686.458-.458.69-1.124.69-2ZM57.764 11.32c0 .744-.218 1.353-.654 1.831-.456.492-1.061.737-1.816.737-.728 0-1.308-.235-1.74-.707-.432-.47-.647-1.065-.647-1.78 0-.75.222-1.364.668-1.84.446-.478 1.045-.717 1.8-.717.729 0 1.314.235 1.757.706.42.458.632 1.048.632 1.77Zm-1.144.035c0-.446-.099-.828-.295-1.147-.232-.386-.561-.579-.99-.579-.442 0-.779.193-1.01.579-.198.319-.296.707-.296 1.167 0 .446.1.829.296 1.148.239.385.571.578 1 .578.421 0 .751-.196.99-.589.203-.325.305-.71.305-1.157ZM66.028 8.943l-1.552 4.835h-1.01l-.642-2.1a15.382 15.382 0 0 1-.4-1.562h-.02a11.2 11.2 0 0 1-.398 1.562l-.683 2.1h-1.021l-1.46-4.835h1.134l.56 2.298c.136.544.248 1.062.337 1.552h.02c.082-.404.218-.919.41-1.541l.703-2.308h.898l.675 2.258c.163.551.295 1.082.398 1.592h.03c.075-.497.187-1.027.337-1.591l.601-2.26h1.083ZM71.743 13.778h-1.102v-2.77c0-.853-.333-1.28-1-1.28-.327 0-.59.117-.796.352a1.23 1.23 0 0 0-.306.83v2.867h-1.103v-3.452c0-.425-.013-.886-.04-1.384h.97l.05.756h.031c.129-.235.32-.429.572-.584a1.9 1.9 0 0 1 .999-.272c.463 0 .848.146 1.154.438.38.358.571.893.571 1.602v2.897ZM74.784 13.778h-1.101V6.724h1.101v7.054ZM81.275 11.32c0 .744-.218 1.353-.654 1.831-.456.492-1.062.737-1.817.737-.729 0-1.308-.235-1.74-.707-.43-.47-.646-1.065-.646-1.78 0-.75.221-1.364.667-1.84.447-.478 1.046-.717 1.8-.717.73 0 1.313.235 1.757.706.421.458.633 1.048.633 1.77Zm-1.145.035c0-.446-.099-.828-.296-1.147-.23-.386-.56-.579-.987-.579-.444 0-.781.193-1.011.579-.198.319-.296.707-.296 1.167 0 .446.099.829.296 1.148.238.385.57.578 1 .578.42 0 .75-.196.988-.589.205-.325.306-.71.306-1.157ZM86.61 13.778h-.99l-.082-.557h-.03c-.339.444-.822.667-1.449.667-.468 0-.847-.147-1.132-.438a1.355 1.355 0 0 1-.388-.985c0-.59.252-1.04.76-1.353.508-.312 1.221-.464 2.14-.457v-.09c0-.637-.344-.955-1.03-.955-.49 0-.921.12-1.293.358l-.225-.706c.461-.278 1.03-.418 1.701-.418 1.297 0 1.947.667 1.947 2v1.781c0 .483.024.868.071 1.153Zm-1.144-1.662v-.745c-1.216-.02-1.825.304-1.825.974 0 .252.07.441.212.567a.783.783 0 0 0 .539.19c.242 0 .468-.076.674-.225a.914.914 0 0 0 .4-.76ZM92.875 13.778h-.979l-.051-.776h-.03c-.313.59-.846.886-1.593.886a1.886 1.886 0 0 1-1.49-.686c-.395-.458-.591-1.052-.591-1.781 0-.783.213-1.416.642-1.9a1.998 1.998 0 0 1 1.531-.678c.666 0 1.132.219 1.397.657h.021V6.724h1.104v5.751c0 .471.012.905.039 1.303Zm-1.143-2.039v-.806c0-.14-.01-.253-.03-.339a1.22 1.22 0 0 0-.4-.651 1.1 1.1 0 0 0-.737-.264c-.41 0-.733.16-.97.478-.234.32-.353.726-.353 1.224 0 .478.113.866.339 1.164.239.318.56.477.963.477.362 0 .652-.132.871-.398.213-.245.317-.54.317-.885ZM102.304 11.32c0 .744-.218 1.353-.653 1.831-.457.492-1.061.737-1.817.737-.727 0-1.307-.235-1.74-.707-.432-.47-.647-1.065-.647-1.78 0-.75.222-1.364.668-1.84.446-.478 1.046-.717 1.802-.717.727 0 1.313.235 1.755.706.42.458.632 1.048.632 1.77Zm-1.143.035c0-.446-.099-.828-.295-1.147-.233-.386-.561-.579-.99-.579-.442 0-.779.193-1.011.579-.198.319-.296.707-.296 1.167 0 .446.1.829.296 1.148.239.385.571.578 1 .578.421 0 .752-.196.99-.589.203-.325.306-.71.306-1.157ZM108.232 13.778h-1.102v-2.77c0-.853-.332-1.28-1-1.28-.328 0-.592.117-.796.352a1.225 1.225 0 0 0-.306.83v2.867h-1.103v-3.452c0-.425-.013-.886-.039-1.384h.968l.051.756h.031c.129-.235.32-.429.571-.584.3-.18.633-.272 1-.272.462 0 .847.146 1.153.438.382.358.572.893.572 1.602v2.897ZM115.652 9.748h-1.214v2.349c0 .597.215.895.642.895a2 2 0 0 0 .492-.05l.028.816c-.218.08-.504.12-.856.12-.436 0-.775-.13-1.02-.388-.246-.259-.368-.694-.368-1.304V9.748h-.725v-.805h.725v-.886l1.081-.318v1.203h1.214v.806h.001ZM121.488 13.778h-1.104v-2.749c0-.867-.332-1.3-.998-1.3-.511 0-.86.25-1.052.754a1.341 1.341 0 0 0-.051.386v2.908h-1.102V6.724h1.102v2.914h.021c.347-.53.844-.795 1.489-.795.457 0 .834.146 1.134.438.374.365.561.906.561 1.622v2.875ZM127.508 11.132c0 .193-.014.355-.041.487h-3.306c.015.478.173.842.479 1.094.28.226.64.339 1.082.339.489 0 .935-.076 1.337-.229l.173.747c-.47.199-1.024.298-1.664.298-.768 0-1.373-.22-1.811-.661-.44-.441-.657-1.033-.657-1.776 0-.729.203-1.336.612-1.82.427-.517 1.005-.776 1.734-.776.713 0 1.255.259 1.621.776.295.41.441.918.441 1.52Zm-1.051-.278a1.425 1.425 0 0 0-.214-.826c-.192-.298-.483-.448-.877-.448-.36 0-.654.146-.878.438-.183.233-.291.51-.327.836h2.296Z" fill="#fff"/></svg>