<svg width="142" height="42" fill="none" xmlns="http://www.w3.org/2000/svg"><path d="M136.57 41.055H5.253C2.365 41.055 0 38.745 0 35.926V5.156C0 2.336 2.365.027 5.253.027H136.57c2.888 0 5.253 2.31 5.253 5.129v30.77c0 2.82-2.365 5.129-5.253 5.129Z" fill="#443E3E"/><path d="M136.57.85c2.432 0 4.411 1.931 4.411 4.306v30.77c0 2.375-1.979 4.307-4.411 4.307H5.253c-2.432 0-4.411-1.932-4.411-4.306V5.155C.842 2.78 2.82.849 5.252.849H136.57Zm0-.823H5.253C2.365.027 0 2.337 0 5.156v30.77c0 2.82 2.365 5.129 5.253 5.129H136.57c2.888 0 5.253-2.31 5.253-5.129V5.156c0-2.82-2.365-5.129-5.253-5.129Z" fill="#A6A6A6"/><path d="M49.814 10.534c0 .857-.262 1.542-.78 2.054-.594.607-1.37.912-2.319.912-.907 0-1.682-.31-2.318-.922-.636-.62-.954-1.382-.954-2.294 0-.911.318-1.673.955-2.288.635-.617 1.41-.927 2.317-.927.452 0 .883.09 1.294.26.41.17.743.401.985.686l-.55.54c-.42-.485-.995-.725-1.729-.725-.662 0-1.235.226-1.723.681-.481.456-.723 1.047-.723 1.773s.242 1.322.723 1.778a2.46 2.46 0 0 0 1.723.681c.703 0 1.294-.23 1.76-.686.307-.301.482-.716.528-1.247h-2.288v-.741h3.052c.037.16.047.315.047.465ZM54.656 7.965h-2.867v1.949h2.584v.74H51.79v1.95h2.867v.755h-3.678v-6.15h3.678v.756ZM58.073 13.359h-.812V7.965h-1.758V7.21h4.33v.755h-1.76v5.394ZM62.965 13.359v-6.15h.81v6.15h-.81ZM67.367 13.359h-.805V7.965h-1.765V7.21h4.335v.755h-1.765v5.394ZM77.33 12.568c-.622.621-1.391.932-2.31.932-.923 0-1.692-.31-2.313-.932-.62-.621-.929-1.383-.929-2.284 0-.901.309-1.663.929-2.283.62-.622 1.39-.932 2.314-.932.912 0 1.682.31 2.303.937.625.626.933 1.382.933 2.278 0 .901-.308 1.663-.928 2.284Zm-4.023-.516c.467.46 1.036.691 1.714.691.672 0 1.246-.23 1.708-.69.466-.461.703-1.052.703-1.769 0-.717-.237-1.308-.703-1.768-.462-.46-1.036-.691-1.708-.691-.678 0-1.247.23-1.714.691-.466.46-.703 1.051-.703 1.768 0 .717.237 1.308.703 1.768ZM79.396 13.359v-6.15h.985l3.062 4.783h.036l-.036-1.182v-3.6h.81v6.149h-.845L80.2 8.34h-.035l.035 1.187v3.83h-.805Z" fill="#fff" stroke="#fff" stroke-width=".16" stroke-miterlimit="10"/><path d="M71.579 22.339c-2.468 0-4.483 1.833-4.483 4.363 0 2.509 2.015 4.361 4.483 4.361 2.472 0 4.488-1.852 4.488-4.361 0-2.53-2.016-4.363-4.488-4.363Zm0 7.006c-1.354 0-2.519-1.09-2.519-2.643 0-1.574 1.165-2.645 2.519-2.645s2.524 1.072 2.524 2.645c0 1.552-1.17 2.643-2.524 2.643Zm-9.782-7.006c-2.473 0-4.483 1.833-4.483 4.363 0 2.509 2.01 4.361 4.483 4.361 2.471 0 4.483-1.852 4.483-4.361 0-2.53-2.012-4.363-4.483-4.363Zm0 7.006c-1.355 0-2.524-1.09-2.524-2.643 0-1.574 1.169-2.645 2.524-2.645 1.354 0 2.519 1.072 2.519 2.645 0 1.552-1.165 2.643-2.52 2.643Zm-11.64-5.67v1.855h4.534c-.132 1.036-.487 1.797-1.03 2.328-.663.641-1.693 1.353-3.504 1.353-2.79 0-4.976-2.2-4.976-4.924s2.185-4.923 4.976-4.923c1.509 0 2.607.576 3.417 1.322l1.338-1.306c-1.133-1.057-2.641-1.868-4.755-1.868-3.827 0-7.043 3.04-7.043 6.775 0 3.736 3.216 6.776 7.043 6.776 2.068 0 3.622-.661 4.843-1.902 1.251-1.222 1.641-2.94 1.641-4.327 0-.431-.036-.827-.102-1.158h-6.382Zm47.597 1.438c-.369-.976-1.507-2.774-3.826-2.774-2.298 0-4.212 1.768-4.212 4.363 0 2.443 1.894 4.361 4.432 4.361a4.454 4.454 0 0 0 3.724-1.933l-1.523-.991c-.508.726-1.2 1.206-2.2 1.206-.995 0-1.708-.444-2.165-1.322l5.976-2.414-.206-.496Zm-6.093 1.453a2.42 2.42 0 0 1 2.334-2.544c.78 0 1.441.38 1.662.926l-3.996 1.618Zm-4.857 4.232h1.964V17.977h-1.964v12.821Zm-3.218-7.487h-.065c-.442-.51-1.283-.972-2.35-.972-2.237 0-4.283 1.918-4.283 4.377 0 2.445 2.046 4.347 4.283 4.347 1.067 0 1.908-.465 2.35-.99h.065v.625c0 1.668-.912 2.564-2.384 2.564-1.2 0-1.945-.846-2.252-1.558l-1.709.697c.493 1.156 1.796 2.58 3.96 2.58 2.304 0 4.247-1.324 4.247-4.543v-7.834h-1.862v.707Zm-2.246 6.034c-1.354 0-2.488-1.106-2.488-2.63 0-1.537 1.134-2.658 2.487-2.658 1.335 0 2.387 1.122 2.387 2.659 0 1.523-1.052 2.63-2.386 2.63Zm25.612-11.368h-4.699v12.821h1.959V25.94h2.74c2.176 0 4.31-1.537 4.31-3.982 0-2.444-2.14-3.981-4.31-3.981Zm.051 6.18h-2.791V19.76h2.791a2.251 2.251 0 0 1 2.298 2.198c0 .992-.835 2.199-2.298 2.199Zm12.111-1.843c-1.415 0-2.887.61-3.493 1.963l1.739.712c.374-.712 1.062-.943 1.79-.943 1.016 0 2.047.597 2.063 1.65v.134c-.355-.2-1.114-.496-2.047-.496-1.873 0-3.781 1.006-3.781 2.884 0 1.718 1.534 2.825 3.258 2.825 1.318 0 2.046-.58 2.503-1.257h.067v.991h1.892V25.86c0-2.273-1.739-3.545-3.991-3.545Zm-.236 7.026c-.641 0-1.534-.31-1.534-1.086 0-.992 1.114-1.373 2.078-1.373.862 0 1.267.186 1.791.43-.154 1.188-1.2 2.03-2.335 2.03Zm11.121-6.745-2.252 5.558h-.067l-2.328-5.558h-2.113l3.498 7.767-1.996 4.322h2.048l5.39-12.089h-2.18Zm-17.661 8.203h1.965V17.977h-1.965v12.821Z" fill="#fff"/><path d="M10.962 7.76c-.308.315-.487.806-.487 1.442v22.683c0 .636.179 1.127.487 1.442l.077.07L24.056 20.69v-.3L11.04 7.685l-.077.075Z" fill="url(#a)"/><path d="m28.392 24.928-4.335-4.237v-.3l4.34-4.237.097.055 5.14 2.855c1.467.81 1.467 2.144 0 2.96l-5.14 2.85-.102.055Z" fill="url(#b)"/><path d="m28.495 24.873-4.438-4.332-13.095 12.787c.488.5 1.282.56 2.186.06l15.347-8.515Z" fill="url(#c)"/><path d="M28.495 16.209 13.147 7.695c-.903-.495-1.697-.435-2.185.065L24.057 20.54l4.438-4.332Z" fill="url(#d)"/><defs><linearGradient id="a" x1="22.901" y1="32.121" x2="5.693" y2="14.496" gradientUnits="userSpaceOnUse"><stop stop-color="#00A0FF"/><stop offset=".007" stop-color="#00A1FF"/><stop offset=".26" stop-color="#00BEFF"/><stop offset=".512" stop-color="#00D2FF"/><stop offset=".76" stop-color="#00DFFF"/><stop offset="1" stop-color="#00E3FF"/></linearGradient><linearGradient id="b" x1="35.544" y1="20.54" x2="10.124" y2="20.54" gradientUnits="userSpaceOnUse"><stop stop-color="#FFE000"/><stop offset=".409" stop-color="#FFBD00"/><stop offset=".775" stop-color="orange"/><stop offset="1" stop-color="#FF9C00"/></linearGradient><linearGradient id="c" x1="26.082" y1="18.186" x2="2.746" y2="-5.716" gradientUnits="userSpaceOnUse"><stop stop-color="#FF3A44"/><stop offset="1" stop-color="#C31162"/></linearGradient><linearGradient id="d" x1="7.666" y1="40.874" x2="18.087" y2="30.201" gradientUnits="userSpaceOnUse"><stop stop-color="#32A071"/><stop offset=".069" stop-color="#2DA771"/><stop offset=".476" stop-color="#15CF74"/><stop offset=".801" stop-color="#06E775"/><stop offset="1" stop-color="#00F076"/></linearGradient></defs></svg>